<svg width="60" height="64" viewBox="0 0 60 64" fill="none" xmlns="http://www.w3.org/2000/svg">
<circle cx="29.5807" cy="33.5807" r="29.5807" fill="white"/>
<path d="M59.1614 33.5807C59.1614 37.4653 58.3963 41.3119 56.9097 44.9008C55.4231 48.4897 53.2442 51.7506 50.4974 54.4975C47.7506 57.2443 44.4896 59.4232 40.9007 60.9097C37.3118 62.3963 33.4653 63.1614 29.5807 63.1614L29.5807 33.5807H59.1614Z" fill="#FFC628"/>
<circle cx="28.8763" cy="32.9761" r="15.0521" fill="#040404"/>
<ellipse cx="28.787" cy="38.8475" rx="7.57555" ry="7.23886" fill="#FA2020"/>
<path d="M22 7C22 3.13401 25.134 0 29 0C32.866 0 36 3.13401 36 7V22C36 25.866 32.866 29 29 29C25.134 29 22 25.866 22 22V7Z" fill="#FF0000"/>
</svg>
